# xmcd
#
# Track frame offsets:
#	187
#	10800
#	22762
#	35737
#	46612
#	58650
#	69937
#	80737
#	92325
#	105412
#	117412
#	127575
#	138337
#	147150
#
# Disc length: 2140 seconds
#
# Revision: 3
# Processed by: cddbd v1.5.1PL0 Copyright (c) Steve Scherf et al.
# Submitted via: audiograbber 1.83.01
#
DISCID=a6085a0e
DTITLE=Johnny Adams - I Won't Cry
DYEAR=1991
DGENRE=Blues
TTITLE0=I Won't Cry
TTITLE1=Life Is A Struggle
TTITLE2=A Losing Battle
TTITLE3=Nowhere To Go
TTITLE4=Oh So Nice
TTITLE5=I Want To Do Everything For You
TTITLE6=You Can Make It If You Try
TTITLE7=Teach Me To Forget
TTITLE8=Let The Winds Blow
TTITLE9=I Solemnly Promise
TTITLE10=Who Are You
TTITLE11=Come On
TTITLE12=Someone For Me
TTITLE13=Lonely Drifter
EXTD=Rounder CD 2083\n\nOriginal recordings produced by Mac Rebennack, Joe Ruff
EXTD=ino and Eddie Bo.  Reissue produced by Jeff Hannusch.  \n\nAll tracks exce
EXTD=pt "Losing Battle" and "Life Is A Struggle" are digital transfers from the
EXTD=original studio tapes.
EXTT0=
EXTT1=
EXTT2=
EXTT3=
EXTT4=
EXTT5=
EXTT6=
EXTT7=
EXTT8=
EXTT9=
EXTT10=
EXTT11=
EXTT12=
EXTT13=
PLAYORDER=
